<svg xmlns="http://www.w3.org/2000/svg" viewBox="0 0 19 19"><defs><style>.cls-1{fill:#444;}.cls-2{fill:#f67d7d;}</style></defs><title>18K_Rose_Gold</title><g id="Layer_2" data-name="Layer 2"><g id="Layer_1-2" data-name="Layer 1"><path class="cls-1" d="M7.15,12.41v-5A3.89,3.89,0,0,1,5.92,8V7.31a3.78,3.78,0,0,0,1.44-.85H8v6Z"/><path class="cls-1" d="M9.23,10.74A1.6,1.6,0,0,1,10.3,9.22,1.34,1.34,0,0,1,9.48,8c0-.91.65-1.58,1.87-1.58A1.59,1.59,0,0,1,13.14,8a1.24,1.24,0,0,1-.82,1.23,1.57,1.57,0,0,1,1,1.53c0,1.13-.87,1.81-2.11,1.81A1.83,1.83,0,0,1,9.23,10.74Zm3.34,0c0-.75-.48-1.14-1.27-1.14A1.1,1.1,0,0,0,10,10.7a1.15,1.15,0,0,0,1.27,1.16A1.12,1.12,0,0,0,12.57,10.7ZM10.26,8c0,.5.32.92,1.07.92s1-.34,1-.89a.93.93,0,0,0-1-1C10.57,7,10.26,7.41,10.26,8Z"/><path class="cls-2" d="M9.5,0A9.5,9.5,0,1,0,19,9.5,9.51,9.51,0,0,0,9.5,0Zm0,17A7.5,7.5,0,1,1,17,9.5,7.5,7.5,0,0,1,9.5,17Z"/></g></g></svg>